<svg xmlns="http://www.w3.org/2000/svg" viewBox="0 0 1200 900" role="img" aria-label="Ideal Stay">
  <defs>
    <linearGradient id="navy" x1="290" x2="470" y1="160" y2="610" gradientUnits="userSpaceOnUse">
      <stop stop-color="#082b61"/>
      <stop offset="1" stop-color="#031d49"/>
    </linearGradient>
    <linearGradient id="aqua" x1="485" x2="810" y1="155" y2="555" gradientUnits="userSpaceOnUse">
      <stop stop-color="#19bfd1"/>
      <stop offset="1" stop-color="#05a8c7"/>
    </linearGradient>
    <linearGradient id="wordNavy" x1="80" x2="600" y1="690" y2="805" gradientUnits="userSpaceOnUse">
      <stop stop-color="#082b61"/>
      <stop offset="1" stop-color="#031d49"/>
    </linearGradient>
    <linearGradient id="wordAqua" x1="650" x2="1120" y1="690" y2="820" gradientUnits="userSpaceOnUse">
      <stop stop-color="#19bfd1"/>
      <stop offset="1" stop-color="#05a8c7"/>
    </linearGradient>
  </defs>
  <path fill="url(#navy)" d="M330 170c0-24 20-44 44-44h58c24 0 44 20 44 44v300c-34 36-77 55-146 63V170Z"/>
  <path fill="url(#aqua)" d="M804 152c18 8 24 29 13 46l-31 47c-11 17-34 22-51 12-36-22-73-32-111-31-45 2-74 19-81 49-7 33 26 56 100 77 74 21 127 49 158 84 32 37 39 82 20 136l-55 61c6-43-5-76-34-100-25-21-66-40-124-56-74-21-126-48-157-81-32-35-40-78-26-130 14-53 49-92 104-116 58-26 127-25 275 2Z"/>
  <path fill="url(#navy)" d="M240 544c69 26 139 12 211-41 79-58 160-74 243-22-79-18-154-6-226 37-83 50-159 59-228 26Z"/>
  <path fill="url(#aqua)" d="M438 609c78-6 141-26 190-59 56-38 116-42 179-10-61 10-116 13-166 7-57-7-125 14-203 62Z"/>
  <text x="84" y="800" fill="url(#wordNavy)" font-family="'Plus Jakarta Sans', 'Inter', Arial, sans-serif" font-size="170" font-weight="800">Ideal</text>
  <text x="650" y="800" fill="url(#wordAqua)" font-family="'Plus Jakarta Sans', 'Inter', Arial, sans-serif" font-size="170" font-weight="800">Stay</text>
</svg>
